<svg width="393" height="852" viewBox="0 0 393 852" fill="none" xmlns="http://www.w3.org/2000/svg">
<rect width="393" height="852" fill="#F5F5F5"/>
<g clip-path="url(#clip0_0_1)">
<rect width="393" height="852" fill="white"/>
<g filter="url(#filter0_f_0_1)">
<ellipse cx="-22.5" cy="202" rx="128.5" ry="107" fill="#A5E8E4"/>
</g>
<g filter="url(#filter1_f_0_1)">
<ellipse cx="402" cy="443.5" rx="128" ry="112.5" fill="#2099F0"/>
<path d="M529.5 443.5C529.5 505.297 472.479 555.5 402 555.5C331.521 555.5 274.5 505.297 274.5 443.5C274.5 381.703 331.521 331.5 402 331.5C472.479 331.5 529.5 381.703 529.5 443.5Z" stroke="black"/>
</g>
<g filter="url(#filter2_f_0_1)">
<ellipse cx="-107.5" cy="762" rx="176.5" ry="168" fill="#FD4545"/>
<path d="M68.5 762C68.5 854.485 -10.2744 929.5 -107.5 929.5C-204.726 929.5 -283.5 854.485 -283.5 762C-283.5 669.515 -204.726 594.5 -107.5 594.5C-10.2744 594.5 68.5 669.515 68.5 762Z" stroke="black"/>
</g>
<g filter="url(#filter3_f_0_1)">
<ellipse cx="409" cy="25" rx="188" ry="179" fill="#3BF084"/>
</g>
<g filter="url(#filter4_f_0_1)">
<ellipse cx="381.5" cy="827.5" rx="207.5" ry="212.5" fill="#F765FA"/>
</g>
</g>
<defs>
<filter id="filter0_f_0_1" x="-451" y="-205" width="857" height="814" filterUnits="userSpaceOnUse" color-interpolation-filters="sRGB">
<feFlood flood-opacity="0" result="BackgroundImageFix"/>
<feBlend mode="normal" in="SourceGraphic" in2="BackgroundImageFix" result="shape"/>
<feGaussianBlur stdDeviation="150" result="effect1_foregroundBlur_0_1"/>
</filter>
<filter id="filter1_f_0_1" x="-226" y="-169" width="1256" height="1225" filterUnits="userSpaceOnUse" color-interpolation-filters="sRGB">
<feFlood flood-opacity="0" result="BackgroundImageFix"/>
<feBlend mode="normal" in="SourceGraphic" in2="BackgroundImageFix" result="shape"/>
<feGaussianBlur stdDeviation="250" result="effect1_foregroundBlur_0_1"/>
</filter>
<filter id="filter2_f_0_1" x="-584" y="294" width="953" height="936" filterUnits="userSpaceOnUse" color-interpolation-filters="sRGB">
<feFlood flood-opacity="0" result="BackgroundImageFix"/>
<feBlend mode="normal" in="SourceGraphic" in2="BackgroundImageFix" result="shape"/>
<feGaussianBlur stdDeviation="150" result="effect1_foregroundBlur_0_1"/>
</filter>
<filter id="filter3_f_0_1" x="-79" y="-454" width="976" height="958" filterUnits="userSpaceOnUse" color-interpolation-filters="sRGB">
<feFlood flood-opacity="0" result="BackgroundImageFix"/>
<feBlend mode="normal" in="SourceGraphic" in2="BackgroundImageFix" result="shape"/>
<feGaussianBlur stdDeviation="150" result="effect1_foregroundBlur_0_1"/>
</filter>
<filter id="filter4_f_0_1" x="-376" y="65" width="1515" height="1525" filterUnits="userSpaceOnUse" color-interpolation-filters="sRGB">
<feFlood flood-opacity="0" result="BackgroundImageFix"/>
<feBlend mode="normal" in="SourceGraphic" in2="BackgroundImageFix" result="shape"/>
<feGaussianBlur stdDeviation="275" result="effect1_foregroundBlur_0_1"/>
</filter>
<clipPath id="clip0_0_1">
<rect width="393" height="852" fill="white"/>
</clipPath>
</defs>
</svg>
